<svg xmlns="http://www.w3.org/2000/svg" viewBox="0 0 663.72 149"><defs><style>.cls-1{fill:#007bff;}.cls-2{fill:none;stroke:#fff;stroke-miterlimit:10;stroke-width:10px;}</style></defs><g id="Layer_2" data-name="Layer 2"><g id="main"><path class="cls-1" d="M0,149H119.57A29.42,29.42,0,0,0,149,119.57V0H29.43A29.42,29.42,0,0,0,0,29.43Z"/><polygon class="cls-2" points="24.9 61.07 72.82 81.24 120.74 61.07 72.82 40.89 24.9 61.07"/><line class="cls-2" x1="123.88" y1="107.73" x2="123.88" y2="61.07"/><path class="cls-2" d="M99.3,96.38C100.17,111,43,111,43.82,96.37"/><path class="cls-2" d="M99.3,98V69.89"/><path class="cls-2" d="M43.82,97V69"/><path class="cls-1" d="M229.74,34.36l-.49,20.71-14.55.58L211,101.94,190.38,103l.1-46.29-14.55.78.58-23Z"/><path class="cls-1" d="M287.26,100,263,103.11l-2.93-11H249l-2.44,11-24.9-2.44,19.43-65,27.15-1.36ZM258.35,77.14l-3.71-17-3.62,17Z"/><path class="cls-1" d="M345.51,57.12a33.29,33.29,0,0,1-.66,6.91,20.58,20.58,0,0,1-2.08,5.68,20,20,0,0,1-3.66,4.79,33,33,0,0,1-5.42,4.2l11.62,20.7-22,4.3-7.52-20.8-6.05.19-.88,20.32h-21q.24-11.14.46-22.17t.52-22.17c.06-3.74.13-7.45.19-11.13s.2-7.39.39-11.14a67.42,67.42,0,0,1,6.74-2.1,64.3,64.3,0,0,1,6.67-1.29q3.34-.46,6.78-.63c2.3-.12,4.65-.17,7.06-.17a38,38,0,0,1,10.77,1.53,28.13,28.13,0,0,1,9.2,4.62,23.06,23.06,0,0,1,6.42,7.66A22.67,22.67,0,0,1,345.51,57.12Zm-21.88,1.56a12.11,12.11,0,0,0-.56-3.76,8.28,8.28,0,0,0-1.66-3,7.59,7.59,0,0,0-2.73-2,9.64,9.64,0,0,0-3.84-.71,14.78,14.78,0,0,0-1.9.13,13.48,13.48,0,0,0-1.81.36L310.35,68h1.17a17.74,17.74,0,0,0,4.28-.54,12.76,12.76,0,0,0,3.9-1.66,9.15,9.15,0,0,0,2.83-2.88A7.69,7.69,0,0,0,323.63,58.68Z"/><path class="cls-1" d="M410.79,34.27,387.26,66.79l19.82,34.57-22.66,4L369.58,84.27l-.78,22.07-20.31.78,1.56-74.81,22.75,1.27L371,55.65l15.14-23.34Z"/><path class="cls-1" d="M436.67,35.44l-5.37,66.5L410.69,103V36.8Z"/><path class="cls-1" d="M490,78.21a27.69,27.69,0,0,1-2.32,11.7,23.32,23.32,0,0,1-6.35,8.32,27.33,27.33,0,0,1-9.42,5,39.19,39.19,0,0,1-11.6,1.66,24.6,24.6,0,0,1-5.25-.63q-2.85-.64-5.78-1.59t-5.64-2.05c-1.81-.73-3.41-1.43-4.81-2.08L441,78.41a34.1,34.1,0,0,0,9.2,3.78,40.08,40.08,0,0,0,9.94,1.29c.61,0,1.36,0,2.24-.07a10.39,10.39,0,0,0,2.52-.44,5.33,5.33,0,0,0,2-1.1,2.64,2.64,0,0,0,.83-2.1,2.3,2.3,0,0,0-.58-1.58,4.44,4.44,0,0,0-1.52-1.08,9.26,9.26,0,0,0-2.1-.63c-.78-.15-1.54-.25-2.29-.32s-1.45-.1-2.1-.1h-1.56A19.41,19.41,0,0,1,450,74.6a17.37,17.37,0,0,1-5.91-4.08,18.59,18.59,0,0,1-3.84-6.2,21.73,21.73,0,0,1-1.36-7.79,22.46,22.46,0,0,1,2.32-10.33,24,24,0,0,1,6.2-7.76,28.19,28.19,0,0,1,8.91-4.91,32.08,32.08,0,0,1,10.4-1.71c1.59,0,3.24.06,4.93.18a48.66,48.66,0,0,1,10,1.73,27.62,27.62,0,0,1,4.54,1.71l-1.85,19.82a61.08,61.08,0,0,0-7-1.88,35.19,35.19,0,0,0-7.11-.76l-1.63,0c-.67,0-1.37.06-2.1.15a22.26,22.26,0,0,0-2.22.36,9.38,9.38,0,0,0-2,.66,3.85,3.85,0,0,0-1.42,1.1,2.33,2.33,0,0,0-.49,1.61,2.28,2.28,0,0,0,.81,1.73,5.16,5.16,0,0,0,1.95,1,14.37,14.37,0,0,0,2.64.51c1,.1,1.91.16,2.85.17s1.83,0,2.64,0a14.44,14.44,0,0,1,2,.08,19.67,19.67,0,0,1,7,1.66,16.08,16.08,0,0,1,5.3,3.76,15.74,15.74,0,0,1,3.32,5.59A21.19,21.19,0,0,1,490,78.21Z"/><path class="cls-1" d="M543.6,34.36l-.49,20.71-14.55.58-3.71,46.29L504.25,103l.09-46.29-14.55.78.59-23Z"/><path class="cls-1" d="M601.12,100l-24.22,3.12-2.93-11H562.84l-2.44,11-24.9-2.44,19.43-65,27.15-1.36Zm-28.9-22.85-3.72-17-3.61,17Z"/><path class="cls-1" d="M663.72,100l-24.22,3.12-2.93-11H625.44l-2.44,11-24.91-2.44,19.44-65,27.15-1.36ZM634.81,77.14l-3.71-17-3.61,17Z"/></g></g></svg>