<svg xmlns="http://www.w3.org/2000/svg" viewBox="0 0 487.79 252.12"><defs><style>.cls-1{fill:#007bff;}.cls-2{fill:none;stroke:#fff;stroke-miterlimit:10;stroke-width:10px;}</style></defs><g id="Layer_2" data-name="Layer 2"><g id="main"><path class="cls-1" d="M173.07,149H292.65a29.42,29.42,0,0,0,29.42-29.43V0H202.5a29.43,29.43,0,0,0-29.43,29.43Z"/><polygon class="cls-2" points="197.97 61.07 245.9 81.24 293.82 61.07 245.9 40.89 197.97 61.07"/><line class="cls-2" x1="296.95" y1="107.73" x2="296.95" y2="61.07"/><path class="cls-2" d="M272.38,96.38c.86,14.64-56.36,14.64-55.49,0"/><path class="cls-2" d="M272.38,97.51V69.89"/><path class="cls-2" d="M216.89,97.51V69"/><path class="cls-1" d="M53.81,179.36l-.49,20.71-14.55.58-3.71,46.29L14.45,248l.1-46.29L0,202.51l.59-23Z"/><path class="cls-1" d="M111.33,245l-24.22,3.12-2.93-11H73.05l-2.44,11L45.7,245.67l19.44-65,27.15-1.36ZM82.42,222.14l-3.71-17-3.61,17Z"/><path class="cls-1" d="M169.58,202.12a33.29,33.29,0,0,1-.66,6.91,20.89,20.89,0,0,1-2.07,5.68,20.31,20.31,0,0,1-3.67,4.79,32.62,32.62,0,0,1-5.42,4.2l11.62,20.7-22,4.3-7.52-20.8-6,.19L133,248.41H112q.26-11.15.47-22.17t.51-22.17c.06-3.74.13-7.45.19-11.13s.2-7.39.4-11.14a66.46,66.46,0,0,1,6.73-2.1,64.81,64.81,0,0,1,6.67-1.29q3.34-.47,6.79-.63c2.29-.12,4.64-.17,7.05-.17a38,38,0,0,1,10.77,1.53,28.13,28.13,0,0,1,9.2,4.62,23.06,23.06,0,0,1,6.42,7.66A22.67,22.67,0,0,1,169.58,202.12Zm-21.87,1.56a11.82,11.82,0,0,0-.57-3.76,8.14,8.14,0,0,0-1.66-2.95,7.59,7.59,0,0,0-2.73-2,9.62,9.62,0,0,0-3.83-.71,14.82,14.82,0,0,0-1.91.13,13,13,0,0,0-1.8.36L134.42,213h1.18a17.66,17.66,0,0,0,4.27-.54,12.66,12.66,0,0,0,3.9-1.66,9.29,9.29,0,0,0,2.84-2.88A7.78,7.78,0,0,0,147.71,203.68Z"/><path class="cls-1" d="M234.86,179.27l-23.53,32.52,19.82,34.57-22.65,4-14.85-21.09-.78,22.07-20.31.78,1.56-74.81,22.76,1.27-1.76,22.07,15.13-23.34Z"/><path class="cls-1" d="M260.74,180.44l-5.37,66.5L234.77,248V181.8Z"/><path class="cls-1" d="M314.11,223.21a27.54,27.54,0,0,1-2.32,11.7,23.21,23.21,0,0,1-6.35,8.32,27.24,27.24,0,0,1-9.42,5,39.14,39.14,0,0,1-11.6,1.66,24.6,24.6,0,0,1-5.25-.63q-2.85-.65-5.78-1.59t-5.64-2.05c-1.81-.73-3.41-1.43-4.81-2.08l2.15-20.11a34.1,34.1,0,0,0,9.2,3.78,40.08,40.08,0,0,0,9.94,1.29c.62,0,1.37,0,2.24-.07A10.39,10.39,0,0,0,289,228a5.38,5.38,0,0,0,2-1.1,2.67,2.67,0,0,0,.83-2.1,2.31,2.31,0,0,0-.59-1.58,4.49,4.49,0,0,0-1.51-1.08,9.42,9.42,0,0,0-2.1-.63c-.78-.15-1.55-.25-2.3-.32s-1.45-.1-2.1-.1h-1.56a19.41,19.41,0,0,1-7.64-1.46,17.37,17.37,0,0,1-5.91-4.08,18.56,18.56,0,0,1-3.83-6.2,21.73,21.73,0,0,1-1.37-7.79,22.46,22.46,0,0,1,2.32-10.33,24,24,0,0,1,6.2-7.76,28.19,28.19,0,0,1,8.91-4.91,32.08,32.08,0,0,1,10.4-1.71c1.6,0,3.24.06,4.93.18a45.36,45.36,0,0,1,5.06.61,45.91,45.91,0,0,1,4.9,1.12,27.62,27.62,0,0,1,4.54,1.71l-1.85,19.82a60,60,0,0,0-7-1.88,35.09,35.09,0,0,0-7.1-.76l-1.64,0c-.67,0-1.37.06-2.1.15a22.26,22.26,0,0,0-2.22.36,9.38,9.38,0,0,0-2,.66,3.85,3.85,0,0,0-1.42,1.1,2.51,2.51,0,0,0,.32,3.34,5.16,5.16,0,0,0,1.95,1,14.37,14.37,0,0,0,2.64.51c1,.1,1.91.16,2.86.17s1.82,0,2.63,0a14.37,14.37,0,0,1,2,.08,19.78,19.78,0,0,1,7,1.66,16.14,16.14,0,0,1,5.29,3.76,15.74,15.74,0,0,1,3.32,5.59A21.19,21.19,0,0,1,314.11,223.21Z"/><path class="cls-1" d="M367.68,179.36l-.49,20.71-14.55.58-3.71,46.29L328.32,248l.1-46.29-14.55.78.58-23Z"/><path class="cls-1" d="M425.19,245,401,248.11l-2.93-11H386.91l-2.44,11-24.9-2.44,19.43-65,27.15-1.36Zm-28.9-22.85-3.71-17-3.62,17Z"/><path class="cls-1" d="M487.79,245l-24.22,3.12-2.93-11H449.51l-2.44,11-24.9-2.44,19.43-65,27.15-1.36Zm-28.9-22.85-3.71-17-3.62,17Z"/></g></g></svg>